<svg xmlns="http://www.w3.org/2000/svg" width="1200" height="630" viewBox="0 0 1200 630" role="img" aria-label="AI and videogames illustration">
  <defs>
    <!-- Background -->
    <linearGradient id="bg" x1="0" x2="1" y1="0" y2="1">
      <stop offset="0%" stop-color="#0b1020"/>
      <stop offset="100%" stop-color="#0e0e12"/>
    </linearGradient>
    <radialGradient id="vignette" cx="50%" cy="50%" r="75%">
      <stop offset="0%" stop-color="#000" stop-opacity="0"/>
      <stop offset="100%" stop-color="#000" stop-opacity="0.35"/>
    </radialGradient>

    <!-- Badge visuals -->
    <radialGradient id="badgeGlow" cx="50%" cy="50%" r="60%">
      <stop offset="0%" stop-color="#22d3ee" stop-opacity="0.25"/>
      <stop offset="100%" stop-color="#22d3ee" stop-opacity="0"/>
    </radialGradient>
    <linearGradient id="ring" x1="0" x2="1">
      <stop offset="0%" stop-color="#38bdf8"/>
      <stop offset="100%" stop-color="#a78bfa"/>
    </linearGradient>

    <filter id="soft" x="-50%" y="-50%" width="200%" height="200%">
      <feGaussianBlur stdDeviation="8"/>
    </filter>
    <filter id="shadow" x="-25%" y="-25%" width="150%" height="150%">
      <feDropShadow dx="0" dy="12" stdDeviation="24" flood-color="#000" flood-opacity="0.35"/>
    </filter>
  </defs>

  <!-- Background with vignette -->
  <rect width="1200" height="630" fill="url(#bg)"/>
  <rect width="1200" height="630" fill="url(#vignette)"/>

  <!-- Centered badge (compact, not wide) -->
  <g transform="translate(600,315)">
    <!-- outer ring -->
    <circle r="170" fill="#0b1220" opacity="0.6"/>
    <circle r="170" fill="none" stroke="url(#ring)" stroke-width="3" opacity="0.7"/>
    <!-- inner glow -->
    <circle r="120" fill="url(#badgeGlow)" filter="url(#soft)"/>

    <!-- robot head (AI) -->
    <g transform="translate(0,-22)" filter="url(#shadow)">
      <rect x="-70" y="-55" width="140" height="90" rx="28" fill="#0f172a" stroke="#334155" stroke-opacity="0.6"/>
      <circle cx="-30" cy="-20" r="10" fill="#67e8f9"/>
      <circle cx="30" cy="-20" r="10" fill="#a78bfa"/>
      <rect x="-22" y="-2" width="44" height="6" rx="3" fill="#1f2937"/>
      <line x1="0" y1="-80" x2="0" y2="-55" stroke="#38bdf8" stroke-width="3"/>
      <circle cx="0" cy="-88" r="6" fill="#38bdf8"/>
    </g>

    <!-- small controller (games) -->
    <g transform="translate(0,78)" filter="url(#shadow)">
      <rect x="-85" y="-24" width="170" height="48" rx="22" fill="#0f172a" stroke="#334155" stroke-opacity="0.6"/>
      <!-- d‑pad -->
      <rect x="-55" y="-8" width="12" height="28" rx="3" fill="#1f2937" stroke="#475569"/>
      <rect x="-69" y="4" width="40" height="12" rx="3" fill="#1f2937" stroke="#475569"/>
      <!-- buttons -->
      <circle cx="45" cy="-6" r="7" fill="#22d3ee"/>
      <circle cx="65" cy="14" r="7" fill="#a78bfa"/>
      <circle cx="25" cy="14" r="7" fill="#34d399"/>
      <circle cx="65" cy="-26" r="0" fill="none"/>
    </g>
  </g>

  <!-- Ambient particles (subtle) -->
  <g fill="#111827" opacity="0.6">
    <circle cx="1080" cy="120" r="3"/>
    <circle cx="1020" cy="160" r="3"/>
    <circle cx="960" cy="110" r="3"/>
    <circle cx="140" cy="520" r="3"/>
    <circle cx="220" cy="470" r="3"/>
  </g>
</svg>

